<svg xmlns="http://www.w3.org/2000/svg" viewBox="0 0 257.39 114.53"><defs><style>.cls-1{fill:#00a6fb;}.cls-2{fill:#fff;}</style></defs><g id="Layer_2" data-name="Layer 2"><g id="Layer_1-2" data-name="Layer 1"><path class="cls-1" d="M140.23,74.07A2.89,2.89,0,0,1,137.28,77H116.16a8.88,8.88,0,0,1-5.33-1.83,7.82,7.82,0,0,1-2.89-6.38V52.94a9.34,9.34,0,0,1,.79-3.59,7.79,7.79,0,0,1,7.43-4.62H140v5.85h-23.8a2.34,2.34,0,0,0-1.75.61,2.41,2.41,0,0,0-.61,1.8V68.8a2.15,2.15,0,0,0,2.36,2.36h18.22V63.82H118.8v-5.9h18.48a3,3,0,0,1,2.95,2.95Z"/><path class="cls-1" d="M178,74.07A2.91,2.91,0,0,1,175,77H161.83c-6.82.09-13.67-4.13-15.47-11-1.24-3.39-.48-17.53-.68-21.29h5.86V60.87a9.67,9.67,0,0,0,9.15,10.21c.58,0,1,.08,1.14.08h10.29V44.73H178Z"/><path class="cls-1" d="M217,58.24a10.38,10.38,0,0,1-8.52,10.6c-1.34.48-13.9.17-15.55.25V63.23h13.24a4.9,4.9,0,0,0,5-5V55.58c-.16-2.74-2.07-5.12-5-5h-13.2a2.12,2.12,0,0,0-2.38,2.36V77h-5.86V52.94a7.92,7.92,0,0,1,8.2-8.21c2.66.16,14.47-.45,16.79.5,4.49,1.3,7.28,5.88,7.28,10.35Z"/><path class="cls-1" d="M253.63,77h-5.86V69.09H227.19V77h-5.85V60.87a17,17,0,0,1,1.21-6.51,15.63,15.63,0,0,1,14.93-9.63h13.2a2.88,2.88,0,0,1,2.09.85,3,3,0,0,1,.86,2.1ZM227.19,63.23h20.58V50.58c-.2,0-11.81,0-11.42.08a9.69,9.69,0,0,0-9.16,10.21Z"/><path class="cls-2" d="M111,86.22h1.22c.73,2,2.87,8.06,3.56,10h.07c.64-1.91,2.81-8,3.52-10h1.22V98.58h-.83c0-2.44-.06-9.12.11-11.46h-.08c-.61,1.83-2.93,8.19-3.62,10.11h-.75c-.72-2-3-8.25-3.66-10.11h-.07c.17,2.31.09,9.06.11,11.46H111Z"/><path class="cls-2" d="M124.93,94.09c-.06-6.3,8.14-6.3,8.08,0S124.88,100.35,124.93,94.09Zm7.21,0c0-5.31-6.38-5.31-6.34,0S132.19,99.37,132.14,94.09Z"/><path class="cls-2" d="M138,97.67h0l-.09.91h-.69V85.09H138V89l0,1.75c3-2.74,6.85-1.34,6.7,3.18C144.69,98.3,140.93,100.17,138,97.67Zm5.8-3.72c.16-3.93-3.09-5.08-5.79-2.38v5.34C140.77,99.33,143.81,97.74,143.82,94Z"/><path class="cls-2" d="M148.54,86.67a.76.76,0,0,1,1.51,0A.76.76,0,0,1,148.54,86.67Zm.32,2.91h.83v9h-.83Z"/><path class="cls-2" d="M154.66,97.37V85.09h.83v12.4c0,.59.27.64.72.55l.14.67C155.45,99,154.6,98.66,154.66,97.37Z"/><path class="cls-2" d="M159.84,94.09c0-6.35,8.19-6.28,7.33.1H160.7a3.55,3.55,0,0,0,5.8,3.1l.35.63A4.35,4.35,0,0,1,159.84,94.09Zm6.6-.58c.18-4.79-5.48-4.37-5.75,0Z"/><path class="cls-2" d="M176.5,86.22H180c2.45,0,4.06.9,4.06,3.27s-1.61,3.42-4.06,3.42h-2.67v5.67h-.87Zm3.31,6c2.19,0,3.4-.87,3.4-2.69S182,87,179.81,87h-2.44v5.23Zm0,.47.83-.24,3.67,6.17h-1Z"/><path class="cls-2" d="M187.17,94.09c0-6.35,8.18-6.28,7.32.1H188a3.55,3.55,0,0,0,5.81,3.1l.34.63A4.34,4.34,0,0,1,187.17,94.09Zm6.59-.58c.18-4.79-5.48-4.37-5.75,0Z"/><path class="cls-2" d="M199.3,97.67h0l-.09.91h-.69V85.09h.83V89l0,1.75c3-2.75,6.85-1.34,6.7,3.18C206,98.3,202.21,100.17,199.3,97.67ZM205.1,94c.16-3.93-3.09-5.08-5.79-2.38v5.34C202.05,99.33,205.09,97.74,205.1,94Z"/><path class="cls-2" d="M209.39,94.09c-.06-6.3,8.14-6.3,8.08,0S209.33,100.35,209.39,94.09Zm7.21,0c0-5.31-6.38-5.31-6.34,0S216.65,99.37,216.6,94.09Z"/><path class="cls-2" d="M221.53,95.35V89.58h.83v5.66c-.13,3.66,3.17,3.54,5,1V89.58h.82v9h-.7l-.09-1.51h0C225.34,99.73,221.3,99.46,221.53,95.35Z"/><path class="cls-2" d="M233.09,89.58h.71l.09,1.39h0c2.12-2.45,6-2.33,5.82,1.84v5.77h-.83V92.91c.13-3.66-3.09-3.44-5-1.12v6.79h-.83Z"/><path class="cls-2" d="M243.82,94.09c0-4.18,3.93-6.11,6.71-3.63l0-1.66V85.09h.82V98.58h-.7l-.09-1.17h0C247.85,100.2,243.63,98.66,243.82,94.09Zm6.67,2.5V91.24c-2.51-2.46-5.8-.73-5.8,2.85C244.57,98.06,248,99.36,250.49,96.59Z"/><path class="cls-2" d="M255.8,98a.8.8,0,1,1,1.59,0A.8.8,0,1,1,255.8,98Z"/><path class="cls-1" d="M63.26,57.27A16,16,0,0,1,47.31,73.21c-21.16-.87-21.14-31,0-31.91A16,16,0,0,1,63.26,57.27Z"/><path class="cls-1" d="M89.68,20.49,8.08.2A6.51,6.51,0,0,0,0,6.52v81.2A6.5,6.5,0,0,0,5,94l81.6,20.3A6.52,6.52,0,0,0,94.63,108V26.8A6.5,6.5,0,0,0,89.68,20.49ZM47.31,91.2A34,34,0,0,1,13.38,57.27c1.86-45,66-45,67.87,0A34,34,0,0,1,47.31,91.2Z"/></g></g></svg>