<?xml version="1.0" encoding="utf-8"?>
<!-- Generator: Adobe Illustrator 26.0.1, SVG Export Plug-In . SVG Version: 6.00 Build 0)  -->
<svg version="1.1" id="Layer_1" xmlns="http://www.w3.org/2000/svg" xmlns:xlink="http://www.w3.org/1999/xlink" x="0px" y="0px"
	 viewBox="0 0 595.3 841.9" style="enable-background:new 0 0 595.3 841.9;" xml:space="preserve">
<style type="text/css">
	.st0{fill:#606060;}
	.st1{fill:#00A6FB;}
	.st2{fill:#FFFFFF;}
</style>
<rect class="st0" width="595.3" height="841.9"/>
<g>
	<path class="st1" d="M269.5,379.9c0,1.6-1.3,3-2.9,2.9c0,0-21.1,0-21.1,0c-1.9,0-3.8-0.7-5.3-1.8c-1.9-1.5-2.9-3.9-2.9-6.4
		c0,0,0-15.9,0-15.9c0-1.2,0.3-2.5,0.8-3.6c1.3-2.9,4.2-4.7,7.4-4.6c0,0,23.8,0,23.8,0v5.9h-23.8c-0.8,0-1.4,0.2-1.8,0.6
		s-0.6,1-0.6,1.8v15.8c0,1.5,0.9,2.4,2.4,2.4c0,0,18.2,0,18.2,0v-7.3H248v-5.9h18.5c1.6,0,3,1.4,2.9,2.9
		C269.5,366.7,269.5,379.9,269.5,379.9z"/>
	<path class="st1" d="M307.2,379.9c0,1.6-1.3,3-2.9,2.9c0,0-13.2,0-13.2,0c-6.8,0.1-13.7-4.1-15.5-11c-1.2-3.4-0.5-17.5-0.7-21.3
		h5.9c0,0,0,16.1,0,16.1c-0.3,5.7,3.9,9.8,9.2,10.2c0.6,0.1,1,0.1,1.1,0.1h10.3v-26.4h5.9V379.9z"/>
	<path class="st1" d="M346.2,364.1c0.2,5.2-3.5,9.7-8.5,10.6c-1.3,0.5-13.9,0.2-15.5,0.2v-5.9h13.2c2.8-0.1,5.1-2.1,5-5
		c0,0,0-2.7,0-2.7c-0.2-2.7-2.1-5.1-5-5c0,0-13.2,0-13.2,0c-0.8,0-1.4,0.2-1.8,0.6s-0.6,1-0.6,1.8v24.1h-5.9v-24.1
		c0-1.5,0.3-2.8,0.8-3.8c1.4-2.8,4.4-4.4,7.4-4.4c2.7,0.2,14.5-0.4,16.8,0.5c4.5,1.3,7.3,5.9,7.3,10.3
		C346.2,361.4,346.2,364.1,346.2,364.1z"/>
	<path class="st1" d="M382.9,382.9H377v-7.9h-20.6v7.9h-5.9v-16.1c0-2.4,0.4-4.5,1.2-6.5c2.4-6.1,8.4-9.7,14.9-9.6
		c0,0,13.2,0,13.2,0c0.8,0,1.5,0.3,2.1,0.9c0.5,0.5,0.9,1.3,0.9,2.1C382.9,353.5,382.9,382.9,382.9,382.9z M356.4,369.1H377v-12.7
		c-0.2,0-11.8,0-11.4,0.1c-5.3,0.5-9.4,4.6-9.2,10.2C356.4,366.7,356.4,369.1,356.4,369.1z"/>
</g>
<g>
	<path class="st2" d="M240.3,392.1h1.2c0.7,2,2.9,8.1,3.6,10h0.1c0.6-1.9,2.8-8,3.5-10h1.2v12.4H249c0-2.4-0.1-9.1,0.1-11.5h-0.1
		c-0.6,1.8-2.9,8.2-3.6,10.1h-0.7c-0.7-2-3-8.3-3.7-10.1H241c0.2,2.3,0.1,9.1,0.1,11.5h-0.8V392.1z"/>
	<path class="st2" d="M254.2,399.9c-0.1-6.3,8.1-6.3,8.1,0C262.3,406.2,254.1,406.2,254.2,399.9z M261.4,399.9c0-5.3-6.4-5.3-6.3,0
		C255,405.2,261.4,405.2,261.4,399.9z"/>
	<path class="st2" d="M267.3,403.5L267.3,403.5l-0.1,0.9h-0.7v-13.5h0.8v3.9l0,1.8c3-2.7,6.9-1.3,6.7,3.2
		C273.9,404.1,270.2,406,267.3,403.5z M273.1,399.8c0.2-3.9-3.1-5.1-5.8-2.4v5.3C270,405.2,273.1,403.6,273.1,399.8z"/>
	<path class="st2" d="M277.8,392.5c0-1,1.5-1,1.5,0C279.3,393.5,277.8,393.5,277.8,392.5z M278.1,395.4h0.8v9h-0.8V395.4z"/>
	<path class="st2" d="M283.9,403.2v-12.3h0.8v12.4c0,0.6,0.3,0.6,0.7,0.6l0.1,0.7C284.7,404.8,283.9,404.5,283.9,403.2z"/>
	<path class="st2" d="M289.1,399.9c0-6.4,8.2-6.3,7.3,0.1h-6.5c-0.1,3.5,3.3,4.9,5.8,3.1l0.3,0.6C293.3,405.8,289,404.3,289.1,399.9
		z M295.7,399.4c0.2-4.8-5.5-4.4-5.7,0H295.7z"/>
	<path class="st2" d="M305.8,392.1h3.5c2.5,0,4.1,0.9,4.1,3.3c0,2.3-1.6,3.4-4.1,3.4h-2.7v5.7h-0.9V392.1z M309.1,398
		c2.2,0,3.4-0.9,3.4-2.7c0-1.9-1.2-2.5-3.4-2.5h-2.4v5.2H309.1z M309.1,398.5l0.8-0.2l3.7,6.2h-1L309.1,398.5z"/>
	<path class="st2" d="M316.4,399.9c0-6.4,8.2-6.3,7.3,0.1h-6.5c-0.1,3.5,3.3,4.9,5.8,3.1l0.3,0.6
		C320.6,405.8,316.3,404.3,316.4,399.9z M323,399.4c0.2-4.8-5.5-4.4-5.7,0H323z"/>
	<path class="st2" d="M328.6,403.5L328.6,403.5l-0.1,0.9h-0.7v-13.5h0.8v3.9l0,1.8c3-2.7,6.9-1.3,6.7,3.2
		C335.2,404.1,331.5,406,328.6,403.5z M334.4,399.8c0.2-3.9-3.1-5.1-5.8-2.4v5.3C331.3,405.2,334.3,403.6,334.4,399.8z"/>
	<path class="st2" d="M338.6,399.9c-0.1-6.3,8.1-6.3,8.1,0C346.8,406.2,338.6,406.2,338.6,399.9z M345.9,399.9c0-5.3-6.4-5.3-6.3,0
		C339.5,405.2,345.9,405.2,345.9,399.9z"/>
	<path class="st2" d="M350.8,401.2v-5.8h0.8v5.7c-0.1,3.7,3.2,3.5,5,1v-6.6h0.8v9h-0.7l-0.1-1.5h0
		C354.6,405.6,350.6,405.3,350.8,401.2z"/>
	<path class="st2" d="M362.3,395.4h0.7l0.1,1.4h0c2.1-2.5,6-2.3,5.8,1.8c0,0,0,5.8,0,5.8h-0.8v-5.7c0.1-3.7-3.1-3.4-5-1.1v6.8h-0.8
		V395.4z"/>
	<path class="st2" d="M373.1,399.9c0-4.2,3.9-6.1,6.7-3.6l0-1.7v-3.7h0.8v13.5h-0.7l-0.1-1.2h0C377.1,406,372.9,404.5,373.1,399.9z
		 M379.7,402.4v-5.3c-2.5-2.5-5.8-0.7-5.8,2.8C373.8,403.9,377.3,405.2,379.7,402.4z"/>
	<path class="st2" d="M385.1,403.8c0-1.1,1.6-1.2,1.6,0C386.6,404.9,385,404.9,385.1,403.8z"/>
</g>
<g>
	<path class="st1" d="M192.5,363.1c0,8.8-7.1,15.9-15.9,15.9c-21.2-0.9-21.1-31,0-31.9C185.4,347.1,192.5,354.3,192.5,363.1z"/>
	<path class="st1" d="M218.9,326.3L137.3,306c-4.1-1-8.1,2.1-8.1,6.3v81.2c0,3,2,5.6,4.9,6.3l81.6,20.3c4.1,1,8.1-2.1,8.1-6.3v-81.2
		C223.9,329.7,221.8,327,218.9,326.3z M176.6,397c-18.7,0-33.9-15.2-33.9-33.9c1.9-45,66-45,67.9,0C210.5,381.8,195.3,397,176.6,397
		z"/>
</g>
</svg>
